<?xml version="1.0" standalone="no"?>
<!DOCTYPE svg PUBLIC "-//W3C//DTD SVG 20010904//EN"
 "http://www.w3.org/TR/2001/REC-SVG-20010904/DTD/svg10.dtd">
<svg version="1.0" xmlns="http://www.w3.org/2000/svg"
 width="170.000000pt" height="43.000000pt" viewBox="0 0 170.000000 43.000000"
 preserveAspectRatio="xMidYMid meet">

<g transform="translate(0.000000,43.000000) scale(0.100000,-0.100000)"
fill="#000000" stroke="none">
<path d="M112 284 c-56 -53 -102 -100 -102 -106 0 -5 12 0 27 12 l28 22 6 -84
5 -83 2 88 2 87 140 0 139 0 4 -67 3 -68 2 75 2 75 -72 72 c-40 40 -75 73 -78
73 -3 0 -52 -43 -108 -96z m183 5 c30 -23 55 -43 55 -45 0 -2 -54 -4 -120 -4
-66 0 -120 3 -119 8 1 15 104 92 116 88 7 -3 38 -24 68 -47z"/>
<path d="M177 192 c-23 -25 -22 -85 1 -105 20 -18 57 -23 66 -8 4 5 -4 7 -15
4 -27 -7 -49 19 -49 58 0 34 23 53 57 46 26 -5 26 -4 8 9 -26 19 -49 18 -68
-4z"/>
</g>
</svg>
